<svg width="1024" height="1024" viewBox="0 0 1024 1024" fill="none" xmlns="http://www.w3.org/2000/svg">
  <rect width="1024" height="1024" rx="232" fill="#0F1418"/>
  <rect x="58" y="58" width="908" height="908" rx="196" fill="url(#bg)"/>
  <rect x="132" y="132" width="760" height="760" rx="168" fill="#10191F"/>
  <rect x="194" y="194" width="636" height="636" rx="136" fill="url(#panel)"/>
  <path d="M284 360C284 328.928 309.193 303.735 340.265 303.735H693.735C724.807 303.735 750 328.928 750 360V665C750 696.072 724.807 721.265 693.735 721.265H340.265C309.193 721.265 284 696.072 284 665V360Z" fill="#0F1418" fill-opacity="0.7" stroke="rgba(255,255,255,0.12)" stroke-width="8"/>
  <path d="M350 407H686" stroke="#35B0E5" stroke-width="28" stroke-linecap="round"/>
  <path d="M350 487H616" stroke="#35B0E5" stroke-width="28" stroke-linecap="round" opacity="0.92"/>
  <path d="M350 567H686" stroke="#35B0E5" stroke-width="28" stroke-linecap="round" opacity="0.85"/>
  <path d="M350 647H548" stroke="#35B0E5" stroke-width="28" stroke-linecap="round" opacity="0.78"/>
  <path d="M698 391L644 429L662 493L606 455L550 493L568 429L514 391L580 389L606 327L632 389L698 391Z" fill="#FFB838"/>
  <circle cx="778" cy="250" r="74" fill="#008DB3"/>
  <path d="M743 250H813" stroke="white" stroke-width="18" stroke-linecap="round"/>
  <path d="M778 215V285" stroke="white" stroke-width="18" stroke-linecap="round"/>
  <defs>
    <linearGradient id="bg" x1="115.5" y1="68.5" x2="895.5" y2="951.5" gradientUnits="userSpaceOnUse">
      <stop stop-color="#35B0E5"/>
      <stop offset="0.52" stop-color="#27749D"/>
      <stop offset="1" stop-color="#008DB3"/>
    </linearGradient>
    <linearGradient id="panel" x1="238" y1="214" x2="768" y2="810" gradientUnits="userSpaceOnUse">
      <stop stop-color="#18242C"/>
      <stop offset="1" stop-color="#0E151A"/>
    </linearGradient>
  </defs>
</svg>
